<?xml version="1.0" encoding="iso-8859-1"?>
<!-- Uploaded to: SVG Repo, www.svgrepo.com, Generator: SVG Repo Mixer Tools -->
<svg fill="#000000" height="800px" width="800px" version="1.1" id="Capa_1" xmlns="http://www.w3.org/2000/svg" xmlns:xlink="http://www.w3.org/1999/xlink" 
	 viewBox="0 0 512 512" xml:space="preserve">
<g>
	<g>
		<path d="M384,0c-35.29,0-64,28.71-64,64v25.003c-6.677-2.368-13.855-3.669-21.333-3.669c-16.38,0-31.334,6.192-42.667,16.348
			c-11.332-10.156-26.287-16.348-42.667-16.348c-7.478,0-14.656,1.301-21.333,3.669V64c0-35.29-28.71-64-64-64
			C92.71,0,64,28.71,64,64v170.667V320c0,105.87,86.13,192,192,192s192-86.13,192-192V64C448,28.71,419.29,0,384,0z M298.666,128
			c11.763,0,21.334,9.57,21.334,21.333v67.669c-6.677-2.368-13.855-3.669-21.333-3.669h-21.333v-64h-0.001
			C277.333,137.57,286.903,128,298.666,128z M192,149.333C192,137.57,201.57,128,213.333,128s21.333,9.57,21.333,21.333v64H192
			V149.333z M106.666,64L106.666,64c0.001-11.763,9.571-21.333,21.334-21.333s21.333,9.57,21.333,21.333v85.333v64h-42.667V64z
			 M405.333,320c0,82.342-66.991,149.333-149.333,149.333S106.667,402.342,106.667,320v-64h64H256h42.667
			C310.43,256,320,265.57,320,277.333s-9.57,21.333-21.333,21.333h-128c-11.782,0-21.333,9.552-21.333,21.333
			s9.552,21.333,21.333,21.333h128c35.29,0,64-28.709,64-64v-42.667v-85.333V64c0-11.763,9.57-21.333,21.333-21.333
			s21.333,9.57,21.333,21.333V320z"/>
	</g>
</g>
</svg>